<mxfile host="app.diagrams.net" agent="Mozilla/5.0 (Windows NT 10.0; Win64; x64) AppleWebKit/537.36 (KHTML, like Gecko) Chrome/131.0.0.0 Safari/537.36" version="25.0.0">
  <diagram name="Page-1" id="lTt6wLJM1vLl60Uylp4t">
    <mxGraphModel dx="1434" dy="780" grid="1" gridSize="10" guides="1" tooltips="1" connect="1" arrows="1" fold="1" page="1" pageScale="1" pageWidth="2000" pageHeight="2000" math="0" shadow="0">
      <root>
        <mxCell id="0" />
        <mxCell id="1" parent="0" />
        <mxCell id="0UcdVowUcQqz_MDruyMX-1" value="" style="rounded=0;whiteSpace=wrap;html=1;" vertex="1" parent="1">
          <mxGeometry x="99" y="120" width="140" height="1000" as="geometry" />
        </mxCell>
        <mxCell id="0UcdVowUcQqz_MDruyMX-2" value="" style="rounded=0;whiteSpace=wrap;html=1;" vertex="1" parent="1">
          <mxGeometry x="826" y="120" width="140" height="1000" as="geometry" />
        </mxCell>
        <mxCell id="0UcdVowUcQqz_MDruyMX-3" value="Computer B (Receiver)" style="text;html=1;align=center;verticalAlign=middle;whiteSpace=wrap;rounded=0;" vertex="1" parent="1">
          <mxGeometry x="827" y="90" width="140" height="30" as="geometry" />
        </mxCell>
        <mxCell id="0UcdVowUcQqz_MDruyMX-4" value="Computer A (Sender)" style="text;html=1;align=center;verticalAlign=middle;whiteSpace=wrap;rounded=0;" vertex="1" parent="1">
          <mxGeometry x="99" y="90" width="140" height="30" as="geometry" />
        </mxCell>
        <mxCell id="0UcdVowUcQqz_MDruyMX-5" value="Type: 1 (start_connection)&lt;div&gt;Sequence: 0&lt;/div&gt;&lt;div&gt;Payload: &quot;.jpg&quot;&lt;/div&gt;" style="shape=message;html=1;html=1;outlineConnect=0;labelPosition=center;verticalLabelPosition=bottom;align=center;verticalAlign=top;" vertex="1" parent="1">
          <mxGeometry x="500" y="160" width="60" height="40" as="geometry" />
        </mxCell>
        <mxCell id="0UcdVowUcQqz_MDruyMX-6" style="edgeStyle=orthogonalEdgeStyle;rounded=0;orthogonalLoop=1;jettySize=auto;html=1;startArrow=block;startFill=1;endArrow=none;endFill=0;exitX=0;exitY=0.5;exitDx=0;exitDy=0;" edge="1" parent="1" source="0UcdVowUcQqz_MDruyMX-5">
          <mxGeometry relative="1" as="geometry">
            <mxPoint x="558" y="179.5" as="sourcePoint" />
            <mxPoint x="278" y="179.5" as="targetPoint" />
            <Array as="points">
              <mxPoint x="239" y="180" />
            </Array>
          </mxGeometry>
        </mxCell>
        <mxCell id="0UcdVowUcQqz_MDruyMX-23" value="Wants to send file foo.jpg" style="edgeLabel;html=1;align=center;verticalAlign=middle;resizable=0;points=[];" vertex="1" connectable="0" parent="0UcdVowUcQqz_MDruyMX-6">
          <mxGeometry x="0.0806" relative="1" as="geometry">
            <mxPoint x="29" as="offset" />
          </mxGeometry>
        </mxCell>
        <mxCell id="0UcdVowUcQqz_MDruyMX-7" style="edgeStyle=orthogonalEdgeStyle;rounded=0;orthogonalLoop=1;jettySize=auto;html=1;" edge="1" parent="1" source="0UcdVowUcQqz_MDruyMX-5">
          <mxGeometry relative="1" as="geometry">
            <mxPoint x="940" y="180" as="targetPoint" />
            <Array as="points">
              <mxPoint x="910" y="180" />
            </Array>
          </mxGeometry>
        </mxCell>
        <mxCell id="0UcdVowUcQqz_MDruyMX-9" style="edgeStyle=orthogonalEdgeStyle;rounded=0;orthogonalLoop=1;jettySize=auto;html=1;endArrow=none;endFill=0;startArrow=block;startFill=1;" edge="1" parent="1" source="0UcdVowUcQqz_MDruyMX-8">
          <mxGeometry relative="1" as="geometry">
            <mxPoint x="820" y="298" as="targetPoint" />
          </mxGeometry>
        </mxCell>
        <mxCell id="0UcdVowUcQqz_MDruyMX-24" value="Received, please continue" style="edgeLabel;html=1;align=center;verticalAlign=middle;resizable=0;points=[];" vertex="1" connectable="0" parent="0UcdVowUcQqz_MDruyMX-9">
          <mxGeometry x="-0.4507" y="-1" relative="1" as="geometry">
            <mxPoint x="58" y="-1" as="offset" />
          </mxGeometry>
        </mxCell>
        <mxCell id="0UcdVowUcQqz_MDruyMX-10" style="edgeStyle=orthogonalEdgeStyle;rounded=0;orthogonalLoop=1;jettySize=auto;html=1;" edge="1" parent="1" source="0UcdVowUcQqz_MDruyMX-8">
          <mxGeometry relative="1" as="geometry">
            <mxPoint x="240" y="298" as="targetPoint" />
          </mxGeometry>
        </mxCell>
        <mxCell id="0UcdVowUcQqz_MDruyMX-8" value="Type: 2 (confirm_connection)&lt;div&gt;Sequence: 0&lt;/div&gt;" style="shape=message;html=1;html=1;outlineConnect=0;labelPosition=center;verticalLabelPosition=bottom;align=center;verticalAlign=top;" vertex="1" parent="1">
          <mxGeometry x="500" y="278" width="60" height="40" as="geometry" />
        </mxCell>
        <mxCell id="0UcdVowUcQqz_MDruyMX-18" value="" style="group" vertex="1" connectable="0" parent="1">
          <mxGeometry x="114" y="170" width="114" height="84" as="geometry" />
        </mxCell>
        <mxCell id="0UcdVowUcQqz_MDruyMX-16" value="" style="fontColor=#0066CC;verticalAlign=top;verticalLabelPosition=bottom;labelPosition=center;align=center;html=1;outlineConnect=0;fillColor=#CCCCCC;strokeColor=#6881B3;gradientColor=none;gradientDirection=north;strokeWidth=2;shape=mxgraph.networks.pc;" vertex="1" parent="0UcdVowUcQqz_MDruyMX-18">
          <mxGeometry y="-22" width="100" height="70" as="geometry" />
        </mxCell>
        <mxCell id="0UcdVowUcQqz_MDruyMX-12" value="" style="image;aspect=fixed;html=1;points=[];align=center;fontSize=12;image=img/lib/azure2/ai_machine_learning/Computer_Vision.svg;" vertex="1" parent="0UcdVowUcQqz_MDruyMX-18">
          <mxGeometry x="80" y="-36" width="34" height="34" as="geometry" />
        </mxCell>
        <mxCell id="0UcdVowUcQqz_MDruyMX-17" value="" style="shape=image;html=1;verticalAlign=top;verticalLabelPosition=bottom;labelBackgroundColor=#ffffff;imageAspect=0;aspect=fixed;image=https://cdn1.iconfinder.com/data/icons/unicons-line-vol-5/24/qrcode-scan-128.png" vertex="1" parent="0UcdVowUcQqz_MDruyMX-18">
          <mxGeometry x="45" y="-9" width="30" height="30" as="geometry" />
        </mxCell>
        <mxCell id="0UcdVowUcQqz_MDruyMX-19" value="" style="group" vertex="1" connectable="0" parent="1">
          <mxGeometry x="846" y="138" width="114" height="84" as="geometry" />
        </mxCell>
        <mxCell id="0UcdVowUcQqz_MDruyMX-20" value="" style="fontColor=#0066CC;verticalAlign=top;verticalLabelPosition=bottom;labelPosition=center;align=center;html=1;outlineConnect=0;fillColor=#CCCCCC;strokeColor=#6881B3;gradientColor=none;gradientDirection=north;strokeWidth=2;shape=mxgraph.networks.pc;" vertex="1" parent="0UcdVowUcQqz_MDruyMX-19">
          <mxGeometry y="14" width="100" height="70" as="geometry" />
        </mxCell>
        <mxCell id="0UcdVowUcQqz_MDruyMX-21" value="" style="image;aspect=fixed;html=1;points=[];align=center;fontSize=12;image=img/lib/azure2/ai_machine_learning/Computer_Vision.svg;" vertex="1" parent="0UcdVowUcQqz_MDruyMX-19">
          <mxGeometry x="80" width="34" height="34" as="geometry" />
        </mxCell>
        <mxCell id="0UcdVowUcQqz_MDruyMX-22" value="" style="shape=image;html=1;verticalAlign=top;verticalLabelPosition=bottom;labelBackgroundColor=#ffffff;imageAspect=0;aspect=fixed;image=https://cdn1.iconfinder.com/data/icons/unicons-line-vol-5/24/qrcode-scan-128.png" vertex="1" parent="0UcdVowUcQqz_MDruyMX-19">
          <mxGeometry x="44" y="26" width="30" height="30" as="geometry" />
        </mxCell>
        <mxCell id="0UcdVowUcQqz_MDruyMX-25" value="Type: 3 (send_data)&lt;div&gt;Sequence: 0&lt;/div&gt;&lt;div&gt;Payload: &quot;....&quot;&lt;/div&gt;" style="shape=message;html=1;html=1;outlineConnect=0;labelPosition=center;verticalLabelPosition=bottom;align=center;verticalAlign=top;" vertex="1" parent="1">
          <mxGeometry x="500" y="390" width="60" height="40" as="geometry" />
        </mxCell>
        <mxCell id="0UcdVowUcQqz_MDruyMX-26" style="edgeStyle=orthogonalEdgeStyle;rounded=0;orthogonalLoop=1;jettySize=auto;html=1;endArrow=none;endFill=0;startArrow=block;startFill=1;" edge="1" parent="1" source="0UcdVowUcQqz_MDruyMX-25" target="0UcdVowUcQqz_MDruyMX-1">
          <mxGeometry relative="1" as="geometry">
            <Array as="points">
              <mxPoint x="260" y="410" />
              <mxPoint x="260" y="410" />
            </Array>
          </mxGeometry>
        </mxCell>
        <mxCell id="0UcdVowUcQqz_MDruyMX-29" value="Start sending file content" style="edgeLabel;html=1;align=center;verticalAlign=middle;resizable=0;points=[];" vertex="1" connectable="0" parent="0UcdVowUcQqz_MDruyMX-26">
          <mxGeometry x="-0.5032" y="1" relative="1" as="geometry">
            <mxPoint x="-100" y="-1" as="offset" />
          </mxGeometry>
        </mxCell>
        <mxCell id="0UcdVowUcQqz_MDruyMX-28" style="edgeStyle=orthogonalEdgeStyle;rounded=0;orthogonalLoop=1;jettySize=auto;html=1;" edge="1" parent="1" source="0UcdVowUcQqz_MDruyMX-25" target="0UcdVowUcQqz_MDruyMX-2">
          <mxGeometry relative="1" as="geometry">
            <Array as="points">
              <mxPoint x="860" y="410" />
              <mxPoint x="860" y="410" />
            </Array>
          </mxGeometry>
        </mxCell>
        <mxCell id="0UcdVowUcQqz_MDruyMX-30" value="Type: 4 (confirm_data)&lt;div&gt;Sequence: 0&lt;/div&gt;" style="shape=message;html=1;html=1;outlineConnect=0;labelPosition=center;verticalLabelPosition=bottom;align=center;verticalAlign=top;" vertex="1" parent="1">
          <mxGeometry x="500" y="500" width="60" height="40" as="geometry" />
        </mxCell>
        <mxCell id="0UcdVowUcQqz_MDruyMX-31" style="edgeStyle=orthogonalEdgeStyle;rounded=0;orthogonalLoop=1;jettySize=auto;html=1;endArrow=none;endFill=0;startArrow=block;startFill=1;" edge="1" source="0UcdVowUcQqz_MDruyMX-30" parent="1">
          <mxGeometry relative="1" as="geometry">
            <mxPoint x="820" y="520" as="targetPoint" />
          </mxGeometry>
        </mxCell>
        <mxCell id="0UcdVowUcQqz_MDruyMX-32" value="Received sequence 0, please continue" style="edgeLabel;html=1;align=center;verticalAlign=middle;resizable=0;points=[];" vertex="1" connectable="0" parent="0UcdVowUcQqz_MDruyMX-31">
          <mxGeometry x="-0.4507" y="-1" relative="1" as="geometry">
            <mxPoint x="67" y="-1" as="offset" />
          </mxGeometry>
        </mxCell>
        <mxCell id="0UcdVowUcQqz_MDruyMX-33" style="edgeStyle=orthogonalEdgeStyle;rounded=0;orthogonalLoop=1;jettySize=auto;html=1;" edge="1" source="0UcdVowUcQqz_MDruyMX-30" parent="1">
          <mxGeometry relative="1" as="geometry">
            <mxPoint x="240" y="520" as="targetPoint" />
          </mxGeometry>
        </mxCell>
        <mxCell id="0UcdVowUcQqz_MDruyMX-34" value="Type: 3 (send_data)&lt;div&gt;Sequence: 1&lt;br&gt;Payload: &quot;....&quot;&lt;/div&gt;" style="shape=message;html=1;html=1;outlineConnect=0;labelPosition=center;verticalLabelPosition=bottom;align=center;verticalAlign=top;" vertex="1" parent="1">
          <mxGeometry x="500" y="610" width="60" height="40" as="geometry" />
        </mxCell>
        <mxCell id="0UcdVowUcQqz_MDruyMX-35" style="edgeStyle=orthogonalEdgeStyle;rounded=0;orthogonalLoop=1;jettySize=auto;html=1;endArrow=none;endFill=0;startArrow=block;startFill=1;" edge="1" source="0UcdVowUcQqz_MDruyMX-34" parent="1">
          <mxGeometry relative="1" as="geometry">
            <mxPoint x="240" y="630" as="targetPoint" />
            <Array as="points">
              <mxPoint x="260" y="630" />
              <mxPoint x="260" y="630" />
            </Array>
          </mxGeometry>
        </mxCell>
        <mxCell id="0UcdVowUcQqz_MDruyMX-40" value="Continue sending file content" style="edgeLabel;html=1;align=center;verticalAlign=middle;resizable=0;points=[];" vertex="1" connectable="0" parent="0UcdVowUcQqz_MDruyMX-35">
          <mxGeometry x="0.125" y="-1" relative="1" as="geometry">
            <mxPoint x="10" y="1" as="offset" />
          </mxGeometry>
        </mxCell>
        <mxCell id="0UcdVowUcQqz_MDruyMX-41" value="Type: 4 (confirm_data)&lt;div&gt;Sequence: 1&lt;/div&gt;" style="shape=message;html=1;html=1;outlineConnect=0;labelPosition=center;verticalLabelPosition=bottom;align=center;verticalAlign=top;" vertex="1" parent="1">
          <mxGeometry x="500" y="730" width="60" height="40" as="geometry" />
        </mxCell>
        <mxCell id="0UcdVowUcQqz_MDruyMX-42" style="edgeStyle=orthogonalEdgeStyle;rounded=0;orthogonalLoop=1;jettySize=auto;html=1;endArrow=none;endFill=0;startArrow=block;startFill=1;" edge="1" parent="1" source="0UcdVowUcQqz_MDruyMX-41">
          <mxGeometry relative="1" as="geometry">
            <mxPoint x="820" y="750" as="targetPoint" />
          </mxGeometry>
        </mxCell>
        <mxCell id="0UcdVowUcQqz_MDruyMX-43" value="Received sequence 1, please continue" style="edgeLabel;html=1;align=center;verticalAlign=middle;resizable=0;points=[];" vertex="1" connectable="0" parent="0UcdVowUcQqz_MDruyMX-42">
          <mxGeometry x="-0.4507" y="-1" relative="1" as="geometry">
            <mxPoint x="56" y="-1" as="offset" />
          </mxGeometry>
        </mxCell>
        <mxCell id="0UcdVowUcQqz_MDruyMX-44" style="edgeStyle=orthogonalEdgeStyle;rounded=0;orthogonalLoop=1;jettySize=auto;html=1;entryX=1.029;entryY=0.63;entryDx=0;entryDy=0;entryPerimeter=0;" edge="1" parent="1" source="0UcdVowUcQqz_MDruyMX-41" target="0UcdVowUcQqz_MDruyMX-1">
          <mxGeometry relative="1" as="geometry">
            <mxPoint x="250" y="750" as="targetPoint" />
          </mxGeometry>
        </mxCell>
        <mxCell id="0UcdVowUcQqz_MDruyMX-45" value="" style="endArrow=none;dashed=1;html=1;dashPattern=1 3;strokeWidth=2;rounded=0;" edge="1" parent="1">
          <mxGeometry width="50" height="50" relative="1" as="geometry">
            <mxPoint x="529.5" y="880" as="sourcePoint" />
            <mxPoint x="529.5" y="820" as="targetPoint" />
          </mxGeometry>
        </mxCell>
        <mxCell id="0UcdVowUcQqz_MDruyMX-46" value="Type: 6 (finish)&lt;div&gt;Sequence: NNN&lt;br&gt;Payload: &quot;....&quot;&lt;/div&gt;" style="shape=message;html=1;html=1;outlineConnect=0;labelPosition=center;verticalLabelPosition=bottom;align=center;verticalAlign=top;" vertex="1" parent="1">
          <mxGeometry x="500" y="900" width="60" height="40" as="geometry" />
        </mxCell>
        <mxCell id="0UcdVowUcQqz_MDruyMX-47" style="edgeStyle=orthogonalEdgeStyle;rounded=0;orthogonalLoop=1;jettySize=auto;html=1;endArrow=none;endFill=0;startArrow=block;startFill=1;" edge="1" parent="1" source="0UcdVowUcQqz_MDruyMX-46">
          <mxGeometry relative="1" as="geometry">
            <mxPoint x="240" y="920" as="targetPoint" />
            <Array as="points">
              <mxPoint x="260" y="920" />
              <mxPoint x="260" y="920" />
            </Array>
          </mxGeometry>
        </mxCell>
        <mxCell id="0UcdVowUcQqz_MDruyMX-48" value="Finish sending file content" style="edgeLabel;html=1;align=center;verticalAlign=middle;resizable=0;points=[];" vertex="1" connectable="0" parent="0UcdVowUcQqz_MDruyMX-47">
          <mxGeometry x="0.125" y="-1" relative="1" as="geometry">
            <mxPoint x="10" y="1" as="offset" />
          </mxGeometry>
        </mxCell>
        <mxCell id="0UcdVowUcQqz_MDruyMX-50" value="Type: 7 (confirm_finish)&lt;div&gt;Sequence: NNN&lt;/div&gt;" style="shape=message;html=1;html=1;outlineConnect=0;labelPosition=center;verticalLabelPosition=bottom;align=center;verticalAlign=top;" vertex="1" parent="1">
          <mxGeometry x="500" y="1020" width="60" height="40" as="geometry" />
        </mxCell>
        <mxCell id="0UcdVowUcQqz_MDruyMX-51" style="edgeStyle=orthogonalEdgeStyle;rounded=0;orthogonalLoop=1;jettySize=auto;html=1;endArrow=none;endFill=0;startArrow=block;startFill=1;" edge="1" parent="1" source="0UcdVowUcQqz_MDruyMX-50">
          <mxGeometry relative="1" as="geometry">
            <mxPoint x="820" y="1040" as="targetPoint" />
          </mxGeometry>
        </mxCell>
        <mxCell id="0UcdVowUcQqz_MDruyMX-52" value="Received sequence NNN, confirm finish" style="edgeLabel;html=1;align=center;verticalAlign=middle;resizable=0;points=[];" vertex="1" connectable="0" parent="0UcdVowUcQqz_MDruyMX-51">
          <mxGeometry x="-0.4507" y="-1" relative="1" as="geometry">
            <mxPoint x="58" y="-1" as="offset" />
          </mxGeometry>
        </mxCell>
        <mxCell id="0UcdVowUcQqz_MDruyMX-53" style="edgeStyle=orthogonalEdgeStyle;rounded=0;orthogonalLoop=1;jettySize=auto;html=1;" edge="1" parent="1" source="0UcdVowUcQqz_MDruyMX-50">
          <mxGeometry relative="1" as="geometry">
            <mxPoint x="240" y="1040" as="targetPoint" />
          </mxGeometry>
        </mxCell>
        <mxCell id="0UcdVowUcQqz_MDruyMX-55" style="edgeStyle=orthogonalEdgeStyle;rounded=0;orthogonalLoop=1;jettySize=auto;html=1;entryX=-0.021;entryY=0.51;entryDx=0;entryDy=0;entryPerimeter=0;" edge="1" parent="1" source="0UcdVowUcQqz_MDruyMX-34" target="0UcdVowUcQqz_MDruyMX-2">
          <mxGeometry relative="1" as="geometry" />
        </mxCell>
        <mxCell id="0UcdVowUcQqz_MDruyMX-56" style="edgeStyle=orthogonalEdgeStyle;rounded=0;orthogonalLoop=1;jettySize=auto;html=1;entryX=-0.036;entryY=0.8;entryDx=0;entryDy=0;entryPerimeter=0;" edge="1" parent="1" source="0UcdVowUcQqz_MDruyMX-46" target="0UcdVowUcQqz_MDruyMX-2">
          <mxGeometry relative="1" as="geometry" />
        </mxCell>
      </root>
    </mxGraphModel>
  </diagram>
</mxfile>
